<svg width="20" height="21" viewBox="0 0 20 21" fill="none" xmlns="http://www.w3.org/2000/svg">
<g id="icon / close / m">
<path id="Union" d="M5.13807 5.03608C4.87772 4.77573 4.45561 4.77573 4.19526 5.03608C3.93491 5.29643 3.93491 5.71854 4.19526 5.97889L9.05719 10.8408L4.19526 15.7027C3.93491 15.9631 3.93491 16.3852 4.19526 16.6456C4.45561 16.9059 4.87772 16.9059 5.13807 16.6456L10 11.7836L14.8619 16.6456C15.1223 16.9059 15.5444 16.9059 15.8047 16.6456C16.0651 16.3852 16.0651 15.9631 15.8047 15.7027L10.9428 10.8408L15.8047 5.97889C16.0651 5.71854 16.0651 5.29643 15.8047 5.03608C15.5444 4.77573 15.1223 4.77573 14.8619 5.03608L10 9.89801L5.13807 5.03608Z" fill="#1F2329" stroke="#1F2329" stroke-width="0.24" stroke-linecap="round" stroke-linejoin="round"/>
</g>
</svg>
