<svg width="17" height="16" viewBox="0 0 17 16" fill="none" xmlns="http://www.w3.org/2000/svg">
    <path d="M2 8C2 9.6576 2.65848 11.2473 3.83058 12.4194C5.00268 13.5915 6.5924 14.25 8.25 14.25C9.9076 14.25 11.4973 13.5915 12.6694 12.4194C13.8415 11.2473 14.5 9.6576 14.5 8C14.5 6.3424 13.8415 4.75268 12.6694 3.58058C11.4973 2.40848 9.9076 1.75 8.25 1.75C6.5924 1.75 5.00268 2.40848 3.83058 3.58058C2.65848 4.75268 2 6.3424 2 8Z"
          stroke="currentColor"/>
    <path d="M7.07812 6.04688C7.07812 5.39967 7.60281 4.875 8.25 4.875C8.89719 4.875 9.42188 5.39967 9.42188 6.04688C9.42188 6.47653 9.19062 6.85219 8.84587 7.05619C8.54875 7.23194 8.25 7.49856 8.25 7.84375V8.625"
          stroke="currentColor" stroke-linecap="round"/>
    <path d="M7.625 10.5C7.625 10.6658 7.69085 10.8247 7.80806 10.9419C7.92527 11.0592 8.08424 11.125 8.25 11.125C8.41576 11.125 8.57473 11.0592 8.69194 10.9419C8.80915 10.8247 8.875 10.6658 8.875 10.5C8.875 10.3342 8.80915 10.1753 8.69194 10.0581C8.57473 9.94085 8.41576 9.875 8.25 9.875C8.08424 9.875 7.92527 9.94085 7.80806 10.0581C7.69085 10.1753 7.625 10.3342 7.625 10.5Z"
          fill="currentColor"/>
</svg>
