<svg width="17" height="16" viewBox="0 0 17 16" fill="none" xmlns="http://www.w3.org/2000/svg">
    <path d="M4.21654 9.83366C4.09376 9.83366 3.99087 9.79244 3.90787 9.70999C3.82476 9.62755 3.7832 9.52544 3.7832 9.40366C3.7832 9.28177 3.82476 9.17855 3.90787 9.09399C3.99087 9.00933 4.09376 8.96699 4.21654 8.96699H9.0832C9.20598 8.96699 9.30887 9.00822 9.39187 9.09066C9.47498 9.1731 9.51654 9.27521 9.51654 9.39699C9.51654 9.51888 9.47498 9.6221 9.39187 9.70666C9.30887 9.79133 9.20598 9.83366 9.0832 9.83366H4.21654ZM4.22137 7.03366C4.0987 7.03366 3.99504 6.99244 3.91037 6.90999C3.82559 6.82755 3.7832 6.72544 3.7832 6.60366C3.7832 6.48177 3.8247 6.37855 3.9077 6.29399C3.9907 6.20933 4.09354 6.16699 4.2162 6.16699H12.2784C12.401 6.16699 12.5047 6.20821 12.5894 6.29066C12.6741 6.3731 12.7165 6.47521 12.7165 6.59699C12.7165 6.71888 12.675 6.8221 12.592 6.90666C12.509 6.99133 12.4062 7.03366 12.2835 7.03366H4.22137Z"
          fill="currentColor"/>
</svg>
