<svg width="17" height="16" viewBox="0 0 17 16" fill="none" xmlns="http://www.w3.org/2000/svg">
    <path d="M4.25504 11.7371C4.12137 11.7371 4.00931 11.6929 3.91887 11.6044C3.82843 11.516 3.7832 11.4064 3.7832 11.2756C3.7832 11.1448 3.82843 11.0328 3.91887 10.9396C4.00931 10.8465 4.12137 10.7999 4.25504 10.7999H8.2832C8.40598 10.7999 8.50887 10.8417 8.59187 10.9253C8.67498 11.0089 8.71654 11.1126 8.71654 11.2361C8.71654 11.3579 8.67504 11.4612 8.59204 11.5459C8.50915 11.6306 8.40831 11.6729 8.28954 11.6729L4.25504 11.7371ZM4.22137 9.37561C4.0987 9.37561 3.99504 9.33439 3.91037 9.25195C3.82559 9.1695 3.7832 9.06739 3.7832 8.94561C3.7832 8.82372 3.8247 8.72044 3.9077 8.63578C3.9907 8.55122 4.09354 8.50894 4.2162 8.50894H12.2784C12.401 8.50894 12.5047 8.55017 12.5894 8.63261C12.6741 8.71506 12.7165 8.81717 12.7165 8.93894C12.7165 9.06083 12.675 9.16406 12.592 9.24861C12.509 9.33328 12.4062 9.37561 12.2835 9.37561H4.22137ZM4.22137 7.09095C4.0987 7.09095 3.99504 7.04972 3.91037 6.96728C3.82559 6.88483 3.7832 6.78272 3.7832 6.66094C3.7832 6.53906 3.8247 6.43583 3.9077 6.35128C3.9907 6.26661 4.09354 6.22428 4.2162 6.22428H12.2784C12.401 6.22428 12.5047 6.2655 12.5894 6.34794C12.6741 6.43039 12.7165 6.5325 12.7165 6.65428C12.7165 6.77617 12.675 6.87944 12.592 6.96411C12.509 7.04867 12.4062 7.09095 12.2835 7.09095H4.22137ZM4.25987 4.79995C4.12631 4.79995 4.01348 4.75506 3.92137 4.66528C3.82926 4.5755 3.7832 4.46428 3.7832 4.33161C3.7832 4.19895 3.82837 4.08656 3.9187 3.99444C4.00915 3.90244 4.12115 3.85645 4.2547 3.85645H12.2399C12.3734 3.85645 12.4863 3.90128 12.5784 3.99095C12.6705 4.08072 12.7165 4.19194 12.7165 4.32461C12.7165 4.45728 12.6714 4.56967 12.581 4.66178C12.4906 4.75389 12.3786 4.79995 12.245 4.79995H4.25987Z"
          fill="currentColor"/>
</svg>
